<?xml version="1.0" standalone="no"?>
<!DOCTYPE svg PUBLIC "-//W3C//DTD SVG 20010904//EN"
 "http://www.w3.org/TR/2001/REC-SVG-20010904/DTD/svg10.dtd">
<svg version="1.0" xmlns="http://www.w3.org/2000/svg"
 width="100.000000pt" height="100.000000pt" viewBox="0 0 100.000000 100.000000"
 preserveAspectRatio="xMidYMid meet">
<metadata>
Created by potrace 1.16, written by Peter Selinger 2001-2019
</metadata>
<g transform="translate(0.000000,100.000000) scale(0.100000,-0.100000)"
fill="#000000" stroke="none">
<path d="M440 799 c-40 -16 -89 -58 -106 -91 -12 -24 -13 -30 -3 -25 45 18 48
15 8 -7 -45 -24 -119 -97 -119 -116 0 -21 26 -9 43 20 10 16 31 39 48 51 29
20 34 21 90 9 76 -16 129 -7 207 36 67 38 69 45 20 91 -44 41 -129 55 -188 32z"/>
<path d="M713 653 c3 -10 15 -43 27 -74 l22 -57 -36 -52 c-53 -77 -65 -138
-47 -235 6 -35 10 -40 31 -37 40 4 98 49 120 92 28 54 27 140 -2 191 -26 47
-36 49 -41 7 -2 -21 -4 -13 -5 23 -1 37 -11 72 -28 107 -24 49 -53 73 -41 35z"/>
<path d="M152 430 c-40 -64 24 -184 120 -224 41 -18 128 -22 128 -6 0 5 -13
16 -30 25 -16 9 -30 18 -30 20 0 3 17 -3 38 -14 82 -42 192 -51 192 -16 0 9
-10 12 -38 8 -20 -3 -56 0 -78 6 -34 9 -44 18 -59 52 -24 51 -102 123 -158
142 -23 8 -49 18 -57 21 -9 4 -20 -2 -28 -14z"/>
</g>
</svg>
