<?xml version="1.0" standalone="no"?>
<!DOCTYPE svg PUBLIC "-//W3C//DTD SVG 20010904//EN"
 "http://www.w3.org/TR/2001/REC-SVG-20010904/DTD/svg10.dtd">
<svg version="1.0" xmlns="http://www.w3.org/2000/svg"
 width="55.000000pt" height="55.000000pt" viewBox="0 0 55.000000 55.000000"
 preserveAspectRatio="xMidYMid meet">
<metadata>
Created by potrace 1.16, written by Peter Selinger 2001-2019
</metadata>
<g transform="translate(0.000000,55.000000) scale(0.100000,-0.100000)"
fill="#000000" stroke="none">
<path d="M262 513 c2 -21 8 -38 13 -38 6 0 11 17 13 38 3 29 0 37 -13 37 -13
0 -16 -8 -13 -37z"/>
<path d="M96 482 c-8 -13 23 -52 40 -52 20 0 18 24 -4 43 -21 19 -28 21 -36 9z"/>
<path d="M417 472 c-21 -23 -22 -42 -3 -42 17 0 48 39 40 52 -8 13 -19 10 -37
-10z"/>
<path d="M204 446 c-17 -8 -44 -31 -60 -52 -25 -32 -29 -47 -29 -100 0 -55 4
-66 33 -103 36 -45 52 -87 52 -136 0 -17 5 -36 12 -43 16 -16 113 -16 125 1 6
6 13 37 16 67 4 32 15 65 27 80 83 104 78 206 -13 274 -34 25 -121 32 -163 12z
m141 -36 c37 -23 65 -74 65 -118 0 -18 -16 -52 -40 -88 -22 -33 -40 -67 -40
-76 0 -9 -4 -20 -10 -23 -6 -4 -10 20 -10 63 0 62 2 70 21 75 16 4 20 12 17
34 -4 35 -41 44 -60 14 -12 -20 -12 -20 -26 0 -21 30 -56 21 -60 -14 -3 -22 1
-30 17 -34 19 -5 21 -13 21 -75 0 -43 -4 -67 -10 -63 -5 3 -10 14 -10 23 0 9
-18 43 -40 76 -45 66 -50 102 -22 155 36 66 124 90 187 51z m-68 -277 c-2 -21
-4 -4 -4 37 0 41 2 58 4 38 2 -21 2 -55 0 -75z m43 -83 c0 -17 -7 -20 -45 -20
-38 0 -45 3 -45 20 0 17 7 20 45 20 38 0 45 -3 45 -20z"/>
<path d="M219 405 c-15 -8 -29 -22 -33 -31 -11 -30 5 -35 36 -9 16 14 38 25
49 25 10 0 19 7 19 15 0 19 -36 19 -71 0z"/>
<path d="M162 318 c6 -18 28 -21 28 -4 0 9 -7 16 -16 16 -9 0 -14 -5 -12 -12z"/>
<path d="M23 318 c5 -17 69 -17 75 0 2 8 -9 12 -38 12 -29 0 -40 -4 -37 -12z"/>
<path d="M453 318 c2 -7 19 -13 37 -13 18 0 35 6 38 13 2 8 -9 12 -38 12 -29
0 -40 -4 -37 -12z"/>
</g>
</svg>
